<svg xmlns="http://www.w3.org/2000/svg" width="480" height="130" viewBox="0 0 480 130" fill="none">
  <path d="M59.0083 15.3493V15.3503C63.1038 11.5108 68.6688 7.45576 75.04 5.8972C69.9422 2.24722 62.6876 -0.954371 53.646 0.263013C42.6916 1.736 35.2864 10.1483 31.0111 16.9154C43.2519 12.1975 53.4336 13.7246 59.0083 15.3493Z" fill="#D8D1D7"/>
  <path d="M66.4373 1.45337C59.9392 4.30946 54.4956 9.22773 50.4294 13.8525C53.8996 14.0864 56.8126 14.7092 59.0083 15.3493V15.3504C63.1037 11.5109 68.6687 7.45581 75.04 5.89725C72.6384 4.17732 69.7579 2.55811 66.4373 1.45337Z" fill="#CAC0C9"/>
  <path d="M87.3274 6.40616C75.932 2.47457 65.5779 9.18967 59.0083 15.3502V15.3492C52.3098 13.3974 38.9668 11.5768 23.3849 20.5718C1.60394 33.1453 -5.95946 57.3771 4.94293 122.274C5.811 127.437 10.8103 130.901 15.9298 129.793C16.0133 129.775 16.0967 129.755 16.1813 129.736C20.7633 128.663 23.7923 124.299 23.2256 119.629L20.0968 93.8336C20.0968 93.8336 39.6409 105.455 62.9618 89.0821C82.2696 101.324 104.459 82.8252 108.237 60.3696C112.602 34.4211 106.629 13.066 87.3274 6.40616Z" fill="#E6E2E6"/>
  <path d="M140.238 61.626C134.097 37.9293 123.462 28.0949 107.214 27.8274C110.054 36.9534 110.293 48.1525 108.237 60.3697C104.459 82.8252 82.2697 101.323 62.9629 89.0822C62.4069 89.4591 61.8521 89.8447 61.2864 90.2107C53.7219 95.1323 46.6028 97.1641 40.4786 97.6862C42.3513 103.945 45.4161 113.681 48.9751 123.083C50.5509 127.247 54.5434 130 58.9975 130H62.6475C67.5861 130 71.8853 126.626 73.0568 121.831L74.5871 115.569H104.769L106.298 121.831C107.47 126.626 111.769 130 116.708 130H120.772C124.974 130 128.792 127.548 130.526 123.721C135.967 111.715 146.202 84.6448 140.238 61.626Z" fill="#D8D1D7"/>
  <path d="M140.238 61.626C134.097 37.9293 123.462 28.0949 107.214 27.8274C107.321 28.1707 107.418 28.5238 107.517 28.8736C119.325 31.968 127.446 42.0808 132.512 61.626C138.478 84.6448 128.241 111.715 122.8 123.721C121.32 126.988 118.319 129.246 114.859 129.84C115.461 129.945 116.079 130 116.708 130H120.772C124.973 130 128.792 127.548 130.526 123.721C135.967 111.715 146.202 84.6448 140.238 61.626Z" fill="#CAC0C9"/>
  <path d="M20.4577 96.81C20.4068 96.7981 20.3569 96.7861 20.306 96.7742C16.5227 95.8742 12.9973 99.001 13.4654 102.86L15.4996 119.629C15.9916 123.683 13.7711 127.507 10.1785 129.146C11.9135 129.953 13.9119 130.23 15.9299 129.793C16.0133 129.775 16.0967 129.755 16.1813 129.736C20.7622 128.663 23.7924 124.299 23.2256 119.629L20.4577 96.81Z" fill="#D8D1D7"/>
  <path d="M87.3274 6.40625C83.5766 5.11197 79.9396 4.97658 76.5128 5.5896C77.5326 5.78023 78.5622 6.04775 79.6015 6.40625C98.9028 13.0661 104.876 34.4212 100.511 60.3697C97.8169 76.382 85.7603 90.3798 72.063 92.6564C88.7027 95.4962 105.044 79.3464 108.237 60.3697C112.602 34.4212 106.629 13.0661 87.3274 6.40625Z" fill="#D8D1D7"/>
  <path d="M108.237 60.3697C104.459 82.8252 82.2697 101.323 62.9629 89.0822C62.4069 89.4591 61.8521 89.8447 61.2864 90.2107C53.7219 95.1323 46.6028 97.1641 40.4786 97.6862C41.143 99.9054 41.9569 102.561 42.8889 105.483C48.9134 105.137 56.2318 103.001 64.4682 97.2183C83.7761 109.46 109.531 89.7418 113.309 67.2862C115.91 51.8231 114.839 37.991 109.465 27.9281C108.727 27.8729 107.977 27.8393 107.214 27.8274C110.054 36.9534 110.293 48.1525 108.237 60.3697Z" fill="#CAC0C9"/>
  <path d="M39.4534 63.3535C37.0855 63.3535 35.2301 65.6551 35.2301 68.5945C35.2301 71.5351 37.0855 73.8377 39.4534 73.8377C41.8225 73.8377 43.6767 71.5351 43.6767 68.5945C43.6767 65.6551 41.8214 63.3535 39.4534 63.3535Z" fill="#433F43"/>
  <path d="M207.625 19.5916C207.625 20.6693 207.348 21.6159 206.794 22.4314C206.231 23.247 205.575 23.8877 204.827 24.3538C203.613 23.5576 202.296 22.8586 200.878 22.2567C199.459 21.645 197.769 21.3392 195.807 21.3392C192.076 21.3392 189.162 22.5188 187.064 24.878C184.965 27.2276 183.916 30.5723 183.916 34.9121C183.916 39.3782 185.023 42.7423 187.238 45.0045C189.453 47.2667 192.494 48.3977 196.36 48.3977C198.371 48.3977 200.086 48.1307 201.504 47.5968C202.932 47.0628 204.249 46.422 205.453 45.6744C206.153 46.2278 206.726 46.9366 207.173 47.8006C207.62 48.6647 207.843 49.6308 207.843 50.6987C207.843 51.6308 207.596 52.5046 207.1 53.3201C206.614 54.1357 205.764 54.825 204.55 55.3881C203.617 55.8541 202.359 56.2862 200.776 56.6842C199.192 57.0823 197.235 57.2813 194.903 57.2813C191.775 57.2813 188.861 56.8347 186.16 55.9415C183.45 55.058 181.094 53.7085 179.093 51.8929C177.082 50.0774 175.508 47.757 174.371 44.9317C173.225 42.1161 172.652 38.7763 172.652 34.9121C172.652 31.2713 173.225 28.0528 174.371 25.2567C175.508 22.4605 177.057 20.1207 179.02 18.2372C180.982 16.344 183.265 14.9119 185.869 13.941C188.482 12.9604 191.28 12.4701 194.262 12.4701C198.507 12.4701 201.796 13.1449 204.127 14.4944C206.459 15.844 207.625 17.543 207.625 19.5916ZM224.837 56.0143C224.371 56.16 223.715 56.291 222.87 56.4075C222.035 56.524 221.102 56.5823 220.072 56.5823C217.974 56.5823 216.458 56.2425 215.526 55.5629C214.593 54.8833 214.127 53.5677 214.127 51.6162V10.5769C214.642 10.441 215.322 10.3002 216.167 10.1546C217.002 10.0186 217.935 9.95068 218.965 9.95068C221.063 9.95068 222.564 10.3002 223.467 10.9992C224.381 11.6983 224.837 13.0284 224.837 14.9896V23.0285C225.818 22.5625 226.926 22.1741 228.16 21.8634C229.393 21.5625 230.734 21.412 232.182 21.412C236.66 21.412 240.167 22.5431 242.703 24.8052C245.248 27.0674 246.52 30.4558 246.52 34.9704V56.0143C246.054 56.16 245.398 56.291 244.553 56.4075C243.718 56.524 242.785 56.5823 241.755 56.5823C239.657 56.5823 238.142 56.2425 237.209 55.5629C236.276 54.8833 235.81 53.5677 235.81 51.6162V35.6112C235.81 33.5141 235.285 32.0189 234.236 31.1257C233.187 30.2422 231.846 29.8004 230.214 29.8004C229.146 29.8004 228.169 29.9509 227.285 30.2519C226.401 30.5626 225.585 30.9267 224.837 31.3441V56.0143ZM268.483 49.3007C269.504 49.3007 270.519 49.1987 271.529 48.9948C272.53 48.7812 273.287 48.5142 273.802 48.1939V41.7569L268.061 42.252C266.565 42.388 265.365 42.7229 264.462 43.2569C263.548 43.7909 263.092 44.5967 263.092 45.6744C263.092 46.7909 263.514 47.6744 264.36 48.3249C265.195 48.9754 266.57 49.3007 268.483 49.3007ZM268.061 21.412C270.49 21.412 272.695 21.6596 274.677 22.1547C276.658 22.6402 278.349 23.3974 279.748 24.4266C281.147 25.446 282.23 26.747 282.997 28.3295C283.765 29.9218 284.148 31.7859 284.148 33.9218V49.723C284.148 50.9366 283.833 51.9026 283.201 52.6211C282.57 53.3493 281.812 53.9706 280.928 54.4852C279.481 55.3687 277.708 56.0435 275.609 56.5095C273.511 56.9755 271.136 57.2085 268.483 57.2085C263.675 57.2085 259.852 56.2862 257.015 54.4415C254.169 52.6065 252.746 49.8007 252.746 46.0239C252.746 42.8103 253.703 40.3637 255.616 38.684C257.52 37.0044 260.454 35.9558 264.418 35.5384L273.729 34.5626V33.7908C273.729 32.2956 273.122 31.1985 271.908 30.4995C270.694 29.8004 268.945 29.4509 266.662 29.4509C264.894 29.4509 263.155 29.6597 261.445 30.0771C259.745 30.5043 258.22 30.9946 256.87 31.548C256.306 31.1791 255.83 30.6111 255.441 29.8441C255.043 29.0674 254.844 28.2373 254.844 27.3538C254.844 25.3052 255.918 23.8392 258.064 22.9557C259.415 22.4411 260.989 22.0576 262.786 21.8052C264.573 21.5431 266.332 21.412 268.061 21.412ZM298.211 56.5823C296.112 56.5823 294.606 56.2425 293.693 55.5629C292.79 54.8833 292.338 53.5677 292.338 51.6162V10.5769C292.804 10.441 293.465 10.3002 294.32 10.1546C295.184 10.0186 296.132 9.95068 297.161 9.95068C299.211 9.95068 300.702 10.3002 301.635 10.9992C302.568 11.6983 303.034 13.0284 303.034 14.9896V56.0143C302.519 56.16 301.844 56.291 301.008 56.4075C300.163 56.524 299.231 56.5823 298.211 56.5823ZM317.586 56.5823C315.487 56.5823 313.981 56.2425 313.068 55.5629C312.165 54.8833 311.713 53.5677 311.713 51.6162V10.5769C312.179 10.441 312.84 10.3002 313.695 10.1546C314.559 10.0186 315.507 9.95068 316.536 9.95068C318.586 9.95068 320.077 10.3002 321.01 10.9992C321.943 11.6983 322.409 13.0284 322.409 14.9896V56.0143C321.894 56.16 321.219 56.291 320.383 56.4075C319.538 56.524 318.606 56.5823 317.586 56.5823ZM357.944 40.985L339.758 43.7084C340.409 45.6696 341.551 47.0579 343.183 47.8735C344.815 48.689 346.704 49.0968 348.851 49.0968C350.804 49.0968 352.645 48.8298 354.374 48.2958C356.103 47.7618 357.502 47.1647 358.571 46.5045C359.27 46.9705 359.853 47.5773 360.32 48.3249C360.786 49.0725 361.019 49.888 361.019 50.7716C361.019 51.8492 360.694 52.7813 360.043 53.5677C359.392 54.3638 358.493 55.0289 357.347 55.5629C356.201 56.0969 354.85 56.4949 353.296 56.7571C351.732 57.0095 350.017 57.1357 348.152 57.1357C345.403 57.1357 342.862 56.7522 340.531 55.9852C338.199 55.2182 336.193 54.0774 334.512 52.5628C332.832 51.0483 331.515 49.1453 330.563 46.854C329.602 44.5725 329.121 41.8928 329.121 38.8151C329.121 35.8345 329.602 33.2519 330.563 31.0674C331.515 28.8732 332.798 27.0528 334.41 25.6062C336.013 24.1596 337.854 23.1013 339.933 22.4314C342.002 21.7518 344.135 21.412 346.33 21.412C348.711 21.412 350.891 21.7761 352.873 22.5042C354.855 23.2227 356.555 24.2324 357.973 25.5334C359.402 26.8441 360.509 28.4072 361.296 30.2228C362.093 32.0383 362.491 34.0189 362.491 36.1646C362.491 37.6597 362.093 38.7763 361.296 39.5141C360.509 40.2617 359.392 40.752 357.944 40.985ZM346.403 29.3198C344.392 29.3198 342.726 29.9364 341.405 31.1694C340.074 32.4024 339.292 34.184 339.059 36.5141L352.422 34.3442C352.324 33.1306 351.785 31.9898 350.804 30.9218C349.823 29.8538 348.356 29.3198 346.403 29.3198ZM390.402 34.6209C390.402 32.9898 389.912 31.781 388.93 30.9946C387.949 30.1985 386.643 29.8004 385.011 29.8004C383.893 29.8004 382.868 29.9412 381.936 30.2228C381.003 30.5043 380.139 30.8538 379.342 31.2713V56.0143C378.876 56.16 378.225 56.291 377.389 56.4075C376.544 56.524 375.612 56.5823 374.591 56.5823C372.493 56.5823 370.978 56.2425 370.045 55.5629C369.112 54.8833 368.646 53.5677 368.646 51.6162V30.0189C368.646 28.8053 368.904 27.8247 369.418 27.0771C369.924 26.3295 370.642 25.6305 371.575 24.98C373.071 23.912 374.995 23.0479 377.346 22.3877C379.706 21.7372 382.31 21.412 385.156 21.412C390.237 21.412 394.162 22.5334 396.93 24.7761C399.709 27.0091 401.098 30.1985 401.098 34.3442V56.0143C400.583 56.16 399.908 56.291 399.073 56.4075C398.227 56.524 397.295 56.5823 396.275 56.5823C394.176 56.5823 392.671 56.2425 391.757 55.5629C390.854 54.8833 390.402 53.5677 390.402 51.6162V34.6209ZM430.12 55.6648V53.3638C429.187 53.7813 428.138 54.1163 426.972 54.3687C425.806 54.6308 424.48 54.7619 422.994 54.7619C420.896 54.7619 418.899 54.4706 417.005 53.8881C415.12 53.3056 413.479 52.359 412.08 51.0483C410.681 49.7473 409.563 48.0482 408.728 45.9511C407.883 43.854 407.46 41.2909 407.46 38.2617C407.46 35.5141 407.883 33.0917 408.728 30.9946C409.563 28.8975 410.763 27.1354 412.327 25.7082C413.891 24.2907 415.757 23.2227 417.923 22.5042C420.089 21.7761 422.503 21.412 425.165 21.412C427.769 21.412 430.159 21.7518 432.335 22.4314C434.501 23.1013 436.192 23.8343 437.406 24.6305C438.29 25.2324 438.989 25.9217 439.504 26.6985C440.009 27.4655 440.262 28.4315 440.262 29.5965V55.9415C440.262 58.3687 439.82 60.4658 438.936 62.2329C438.052 64.0096 436.828 65.4659 435.264 66.6018C433.7 67.7475 431.868 68.6019 429.77 69.165C427.672 69.7184 425.413 69.9951 422.994 69.9951C420.478 69.9951 418.297 69.7863 416.451 69.3689C414.605 68.9514 413.148 68.4174 412.08 67.7669C410.496 66.6407 409.704 65.1455 409.704 63.2814C409.704 62.3105 409.913 61.4173 410.331 60.6018C410.749 59.7862 411.215 59.1891 411.73 58.8105C413.032 59.5581 414.537 60.1988 416.247 60.7328C417.947 61.2668 419.754 61.5338 421.668 61.5338C424.272 61.5338 426.331 61.0824 427.847 60.1794C429.362 59.2668 430.12 57.7619 430.12 55.6648ZM424.874 46.723C426.001 46.723 426.972 46.5822 427.788 46.3006C428.604 46.0191 429.338 45.6453 429.989 45.1793V30.849C429.425 30.616 428.808 30.383 428.138 30.15C427.458 29.9169 426.603 29.8004 425.573 29.8004C423.339 29.8004 421.532 30.4898 420.153 31.8684C418.783 33.2374 418.098 35.3927 418.098 38.3345C418.098 39.9171 418.273 41.2423 418.622 42.3103C418.972 43.388 419.448 44.2521 420.051 44.9026C420.663 45.553 421.377 46.0191 422.193 46.3006C423.009 46.5822 423.902 46.723 424.874 46.723ZM475.454 40.985L457.268 43.7084C457.918 45.6696 459.06 47.0579 460.692 47.8735C462.324 48.689 464.214 49.0968 466.361 49.0968C468.313 49.0968 470.154 48.8298 471.883 48.2958C473.613 47.7618 475.011 47.1647 476.08 46.5045C476.78 46.9705 477.362 47.5773 477.829 48.3249C478.295 49.0725 478.528 49.888 478.528 50.7716C478.528 51.8492 478.203 52.7813 477.552 53.5677C476.901 54.3638 476.002 55.0289 474.856 55.5629C473.71 56.0969 472.359 56.4949 470.805 56.7571C469.241 57.0095 467.526 57.1357 465.661 57.1357C462.912 57.1357 460.371 56.7522 458.04 55.9852C455.708 55.2182 453.702 54.0774 452.022 52.5628C450.341 51.0483 449.025 49.1453 448.073 46.854C447.111 44.5725 446.63 41.8928 446.63 38.8151C446.63 35.8345 447.111 33.2519 448.073 31.0674C449.025 28.8732 450.307 27.0528 451.92 25.6062C453.523 24.1596 455.364 23.1013 457.442 22.4314C459.512 21.7518 461.644 21.412 463.84 21.412C466.22 21.412 468.401 21.7761 470.382 22.5042C472.364 23.2227 474.064 24.2324 475.483 25.5334C476.911 26.8441 478.018 28.4072 478.805 30.2228C479.602 32.0383 480 34.0189 480 36.1646C480 37.6597 479.602 38.7763 478.805 39.5141C478.018 40.2617 476.901 40.752 475.454 40.985ZM463.912 29.3198C461.902 29.3198 460.235 29.9364 458.914 31.1694C457.583 32.4024 456.801 34.184 456.568 36.5141L469.931 34.3442C469.834 33.1306 469.294 31.9898 468.313 30.9218C467.332 29.8538 465.865 29.3198 463.912 29.3198Z" fill="#002766"/>
  <path d="M194.262 86.9905C194.777 86.7575 195.515 86.5099 196.477 86.2477C197.429 85.9953 198.439 85.8691 199.508 85.8691C201.286 85.8691 202.758 86.1264 203.923 86.6409C205.089 87.1458 205.813 87.9128 206.095 88.9419C206.648 90.9905 207.183 92.8886 207.698 94.6362C208.212 96.3838 208.703 98.0731 209.169 99.7042C209.636 101.335 210.087 102.942 210.525 104.525C210.971 106.117 211.404 107.772 211.821 109.491H212.171C212.637 106.607 213.06 103.826 213.439 101.146C213.808 98.4663 214.168 95.8304 214.517 93.2381C214.867 90.6556 215.207 88.0827 215.537 85.5196C215.858 82.9564 216.183 80.3205 216.514 77.6117C218 76.7282 219.656 76.2865 221.483 76.2865C223.018 76.2865 224.344 76.6263 225.461 77.3059C226.578 77.9758 227.137 79.1069 227.137 80.6991C227.137 81.67 227.035 83.1021 226.831 84.9953C226.617 86.8788 226.326 89.0002 225.956 91.3594C225.577 93.709 225.145 96.1653 224.659 98.7285C224.174 101.292 223.659 103.772 223.115 106.17C222.58 108.568 222.036 110.758 221.483 112.738C220.919 114.719 220.38 116.292 219.865 117.457C219.214 118.02 218.189 118.501 216.791 118.899C215.392 119.297 213.944 119.496 212.448 119.496C210.495 119.496 208.829 119.224 207.45 118.68C206.08 118.146 205.23 117.389 204.9 116.408C204.249 114.457 203.491 112 202.626 109.039C201.762 106.078 200.863 102.898 199.931 99.5003C199.561 101.18 199.168 102.855 198.75 104.525C198.323 106.204 197.9 107.835 197.483 109.418C197.065 111.01 196.657 112.491 196.258 113.86C195.86 115.238 195.501 116.462 195.18 117.53C194.529 118.044 193.582 118.501 192.339 118.899C191.105 119.297 189.72 119.496 188.186 119.496C186.32 119.496 184.63 119.214 183.114 118.651C181.599 118.088 180.608 117.34 180.142 116.408C179.724 115.525 179.267 114.243 178.772 112.564C178.286 110.894 177.776 108.971 177.242 106.797C176.698 104.631 176.159 102.301 175.624 99.8061C175.09 97.3207 174.58 94.8304 174.094 92.3352C173.599 89.84 173.167 87.4031 172.797 85.0244C172.419 82.6458 172.113 80.4807 171.879 78.5292C172.491 78.0146 173.307 77.5146 174.328 77.0292C175.357 76.534 176.504 76.2865 177.767 76.2865C179.35 76.2865 180.642 76.6505 181.643 77.3787C182.643 78.0972 183.284 79.2719 183.566 80.903C184.314 85.2817 184.931 89.0099 185.417 92.0876C185.912 95.1653 186.335 97.7964 186.685 99.9809C187.034 102.175 187.336 104.02 187.588 105.515C187.841 107 188.084 108.326 188.317 109.491H188.666C189.133 107.578 189.58 105.806 190.007 104.175C190.425 102.544 190.852 100.879 191.289 99.1799C191.736 97.4809 192.203 95.6653 192.688 93.7333C193.184 91.8012 193.708 89.5536 194.262 86.9905ZM244.413 90.1944V118.928C243.947 119.073 243.296 119.204 242.461 119.321C241.625 119.437 240.693 119.496 239.663 119.496C237.564 119.496 236.059 119.156 235.145 118.476C234.242 117.797 233.79 116.481 233.79 114.53V85.7963C234.257 85.6604 234.907 85.5196 235.743 85.3739C236.588 85.238 237.521 85.1701 238.541 85.1701C240.639 85.1701 242.145 85.5196 243.058 86.2186C243.962 86.9176 244.413 88.2429 244.413 90.1944ZM233.164 75.7331C233.164 74.1505 233.708 72.7961 234.796 71.6699C235.894 70.5534 237.331 69.9951 239.109 69.9951C240.877 69.9951 242.31 70.5534 243.408 71.6699C244.506 72.7961 245.054 74.1505 245.054 75.7331C245.054 77.3641 244.506 78.7379 243.408 79.8545C242.31 80.971 240.877 81.5292 239.109 81.5292C237.331 81.5292 235.894 80.971 234.796 79.8545C233.708 78.7379 233.164 77.3641 233.164 75.7331ZM263.302 107.889C263.302 109.19 263.724 110.132 264.569 110.714C265.405 111.297 266.571 111.588 268.067 111.588C268.766 111.588 269.509 111.505 270.296 111.34C271.093 111.185 271.768 110.991 272.322 110.758C272.749 111.224 273.099 111.758 273.371 112.36C273.653 112.962 273.794 113.661 273.794 114.457C273.794 116.088 273.152 117.428 271.87 118.476C270.588 119.525 268.363 120.049 265.196 120.049C261.281 120.049 258.226 119.151 256.03 117.355C253.835 115.559 252.737 112.636 252.737 108.588V77.2039C253.252 77.0583 253.932 76.903 254.777 76.7379C255.612 76.5826 256.521 76.5049 257.502 76.5049C259.552 76.5049 261.033 76.8641 261.946 77.5826C262.85 78.301 263.302 79.6166 263.302 81.5292V86.073H272.963C273.196 86.539 273.429 87.1361 273.662 87.8643C273.896 88.5827 274.012 89.34 274.012 90.1361C274.012 91.6216 273.672 92.6896 272.992 93.3401C272.312 94.0003 271.438 94.3304 270.369 94.3304H263.302V107.889ZM290.866 118.928C290.4 119.073 289.744 119.204 288.899 119.321C288.063 119.437 287.131 119.496 286.101 119.496C284.003 119.496 282.487 119.156 281.555 118.476C280.622 117.797 280.156 116.481 280.156 114.53V73.4903C280.671 73.3544 281.351 73.2136 282.196 73.068C283.031 72.932 283.964 72.8641 284.994 72.8641C287.092 72.8641 288.593 73.2136 289.496 73.9126C290.41 74.6117 290.866 75.9418 290.866 77.903V85.9419C291.847 85.4759 292.955 85.0875 294.189 84.7768C295.422 84.4759 296.763 84.3254 298.21 84.3254C302.689 84.3254 306.196 85.4565 308.732 87.7186C311.277 89.9808 312.549 93.3692 312.549 97.8838V118.928C312.083 119.073 311.427 119.204 310.582 119.321C309.747 119.437 308.814 119.496 307.784 119.496C305.686 119.496 304.17 119.156 303.238 118.476C302.305 117.797 301.839 116.481 301.839 114.53V98.5246C301.839 96.4275 301.314 94.9323 300.265 94.0391C299.216 93.1556 297.875 92.7138 296.243 92.7138C295.175 92.7138 294.198 92.8643 293.314 93.1653C292.43 93.476 291.614 93.8401 290.866 94.2575V118.928ZM363.817 108.442C363.253 108.908 362.53 109.282 361.646 109.564C360.762 109.845 359.761 109.986 358.644 109.986C357.148 109.986 355.899 109.797 354.899 109.418C353.898 109.049 353.233 108.398 352.902 107.466C351.416 103.136 350.148 99.5343 349.099 96.6605C348.05 93.7964 347.219 91.3158 346.607 89.2186H346.33C346.194 92.1119 346.078 94.7575 345.981 97.1556C345.884 99.5537 345.801 101.894 345.733 104.175C345.665 106.466 345.582 108.777 345.485 111.107C345.398 113.437 345.281 116.001 345.135 118.797C344.63 118.981 343.945 119.156 343.081 119.321C342.216 119.476 341.318 119.554 340.385 119.554C338.568 119.554 337.145 119.243 336.115 118.622C335.095 117.991 334.585 116.903 334.585 115.36C334.585 114.476 334.619 113.253 334.687 111.69C334.755 110.136 334.848 108.345 334.964 106.316C335.081 104.287 335.222 102.107 335.387 99.777C335.552 97.4469 335.712 95.0828 335.868 92.6847C336.033 90.2866 336.188 87.908 336.334 85.5487C336.47 83.1992 336.606 81.0195 336.742 79.0098C337.121 78.5049 337.879 77.937 339.015 77.3059C340.162 76.6748 341.76 76.3593 343.809 76.3593C346.005 76.3593 347.729 76.7088 348.983 77.4078C350.245 78.1069 351.202 79.2477 351.853 80.8302C352.368 82.0923 352.907 83.505 353.471 85.0681C354.024 86.6215 354.583 88.2138 355.146 89.8449C355.7 91.476 356.249 93.0973 356.793 94.709C357.327 96.3207 357.828 97.8013 358.294 99.1508H358.644C359.946 95.044 361.252 91.0682 362.564 87.2235C363.865 83.3788 365.007 80.1554 365.988 77.5535C366.639 77.2234 367.465 76.9418 368.465 76.7088C369.466 76.4758 370.573 76.3593 371.788 76.3593C373.886 76.3593 375.567 76.6602 376.83 77.2622C378.083 77.8739 378.826 78.7622 379.059 79.9273C379.254 80.8593 379.467 82.2817 379.7 84.1943C379.934 86.0972 380.167 88.2866 380.4 90.7624C380.633 93.2284 380.866 95.8255 381.099 98.5537C381.333 101.282 381.541 103.913 381.726 106.447C381.911 108.991 382.071 111.311 382.207 113.408C382.353 115.505 382.45 117.136 382.498 118.302C381.799 118.719 381.051 119.035 380.254 119.248C379.458 119.452 378.457 119.554 377.252 119.554C375.708 119.554 374.386 119.277 373.289 118.724C372.201 118.161 371.608 117.064 371.511 115.433C371.181 110.025 370.957 105.073 370.841 100.578C370.724 96.0828 370.598 92.3886 370.462 89.4953H370.112C369.549 91.4565 368.742 93.9274 367.693 96.9081C366.644 99.8887 365.352 103.733 363.817 108.442ZM417.328 103.898L399.142 106.622C399.793 108.583 400.935 109.971 402.567 110.787C404.199 111.602 406.088 112.01 408.235 112.01C410.188 112.01 412.029 111.743 413.758 111.209C415.487 110.675 416.886 110.078 417.955 109.418C418.654 109.884 419.237 110.491 419.704 111.238C420.17 111.986 420.403 112.801 420.403 113.685C420.403 114.763 420.078 115.695 419.427 116.481C418.776 117.277 417.877 117.942 416.731 118.476C415.585 119.01 414.234 119.408 412.68 119.67C411.116 119.923 409.401 120.049 407.536 120.049C404.787 120.049 402.246 119.666 399.915 118.899C397.583 118.132 395.577 116.991 393.897 115.476C392.216 113.962 390.9 112.059 389.948 109.767C388.986 107.486 388.505 104.806 388.505 101.728C388.505 98.7479 388.986 96.1653 389.948 93.9808C390.9 91.7866 392.182 89.9662 393.795 88.5196C395.397 87.073 397.238 86.0147 399.317 85.3448C401.387 84.6652 403.519 84.3254 405.714 84.3254C408.095 84.3254 410.276 84.6895 412.257 85.4176C414.239 86.1361 415.939 87.1458 417.358 88.4468C418.786 89.7575 419.893 91.3206 420.68 93.1362C421.477 94.9517 421.875 96.9323 421.875 99.078C421.875 100.573 421.477 101.69 420.68 102.428C419.893 103.175 418.776 103.665 417.328 103.898ZM405.787 92.2332C403.776 92.2332 402.11 92.8498 400.789 94.0828C399.458 95.3158 398.676 97.0974 398.443 99.4275L411.806 97.2576C411.708 96.044 411.169 94.9032 410.188 93.8352C409.207 92.7672 407.74 92.2332 405.787 92.2332Z" fill="#002766"/>
</svg>